{"title":"Jack The Giant Slayer CAM 2013 NEW SOURCE XviD AC3-SSDD","uid":8347575,"size":745851369,"categoryP":"video","categoryS":"movies","magnet":"?xt=urn:btih:bd6a33c0e704835e2b561362d4fe37037d9111d6&amp;dn=Jack+The+Giant+Slayer+CAM+2013+NEW+SOURCE+XviD+AC3-SSDD&amp;tr=udp%3A%2F%2Ftracker.openbittorrent.com%3A80&amp;tr=udp%3A%2F%2Fopen.demonii.com%3A1337&amp;tr=udp%3A%2F%2Ftracker.coppersurfer.tk%3A6969&amp;tr=udp%3A%2F%2Fexodus.desync.com%3A6969","seeders":1,"leechers":0,"uploader":"Gh0stNet","files":3,"time":1365249224,"description":"Source - Jack The Giant Slayer - Cam - HP - 2013 (NEW SOURCE).mpg (Thumbs Up + Respect)\n\nNOTES - Took the raw source, cropped the borders, resized it, ran alot of filters over it, here ya go enjoy   Went with AC3 for this one.\n\nSAMPLE INCLUDED.\n\nGeneral\nComplete name                            : Jack The Giant Slayer CAM 2013 NEW SOURCE XviD AC3-SSDD.avi\nFormat                                   : AVI\nFormat/Info                              : Audio Video Interleave\nFile size                                : 707 MiB\nDuration                                 : 1h 43mn\nOverall bit rate                         : 953 Kbps\n\nVideo\nID                                       : 0\nFormat                                   : MPEG-4 Visual\nFormat profile                           : Advanced Simple@L5\nFormat settings, BVOP                    : 2\nFormat settings, QPel                    : No\nFormat settings, GMC                     : No warppoints\nFormat settings, Matrix                  : Default (H.263)\nMuxing mode                              : Packed bitstream\nCodec ID                                 : XVID\nCodec ID/Hint                            : XviD\nDuration                                 : 1h 43mn\nBit rate                                 : 814 Kbps\nWidth                                    : 720 pixels\nHeight                                   : 304 pixels\nDisplay aspect ratio                     : 2.35:1\nFrame rate                               : 29.970 fps\nColor space                              : YUV\nChroma subsampling                       : 4:2:0\nBit depth                                : 8 bits\nScan type                                : Progressive\nCompression mode                         : Lossy\nBits/(Pixel*Frame)                       : 0.124\nStream size                              : 604 MiB (85%)\n\nAudio\nID                                       : 1\nFormat                                   : AC-3\nFormat/Info                              : Audio Coding 3\nMode extension                           : CM (complete main)\nFormat settings, Endianness              : Big\nCodec ID                                 : 2000\nDuration                                 : 1h 43mn\nBit rate mode                            : Constant\nBit rate                                 : 128 Kbps\nChannel(s)                               : 2 channels\nChannel positions                        : Front: L R\nSampling rate                            : 48.0 KHz\nBit depth                                : 16 bits\nCompression mode                         : Lossy\nStream size                              : 94.9 MiB (13%)\n\nScreens:\n &lt;a href=&quot;\nhttp://imgbox.com/abbLOgLs&quot; rel=&quot;nofollow&quot; target=&quot;_NEW&quot;&gt;\nhttp://imgbox.com/abbLOgLs&lt;/a&gt; &lt;a href=&quot;\nhttp://imgbox.com/acuBeDbi&quot; rel=&quot;nofollow&quot; target=&quot;_NEW&quot;&gt;\nhttp://imgbox.com/acuBeDbi&lt;/a&gt; &lt;a href=&quot;\nhttp://imgbox.com/addWGQ8U&quot; rel=&quot;nofollow&quot; target=&quot;_NEW&quot;&gt;\nhttp://imgbox.com/addWGQ8U&lt;/a&gt; &lt;a href=&quot;\nhttp://imgbox.com/abujaqyI&quot; rel=&quot;nofollow&quot; target=&quot;_NEW&quot;&gt;\nhttp://imgbox.com/abujaqyI&lt;/a&gt;","torrent":{"xt":"urn:btih:bd6a33c0e704835e2b561362d4fe37037d9111d6","amp;dn":"Jack+The+Giant+Slayer+CAM+2013+NEW+SOURCE+XviD+AC3-SSDD","amp;tr":["udp%3A%2F%2Ftracker.openbittorrent.com%3A80","udp%3A%2F%2Fopen.demonii.com%3A1337","udp%3A%2F%2Ftracker.coppersurfer.tk%3A6969","udp%3A%2F%2Fexodus.desync.com%3A6969"],"infoHash":"bd6a33c0e704835e2b561362d4fe37037d9111d6","infoHashBuffer":{"type":"Buffer","data":[189,106,51,192,231,4,131,94,43,86,19,98,212,254,55,3,125,145,17,214]},"announce":[],"urlList":[]}}